# xmcd CD database file
#
# Track frame offsets:
#	187
#	15287
#	32975
#	50350
#	67662
#	88487
#	107962
#	127837
#	145112
#	166550
#
# Disc length: 2553 seconds
#
# Revision: 0
# Processed by: cddbd v1.5.2PL0 Copyright (c) Steve Scherf et al.
# Submitted via: CDex 1.51
#
DISCID=7609f70a
DTITLE=Sthephane Grappelli - Afternoon In Paris
DYEAR=1971
DGENRE=Jazz
TTITLE0=This can't be love
TTITLE1=Time after time
TTITLE2=Undecided
TTITLE3=You were only passing by
TTITLE4=Tangerine
TTITLE5=Chicago
TTITLE6=Manoir de mes reves - daphne
TTITLE7=Misty
TTITLE8=Afternoon in Paris
TTITLE9=Autumn leaves
EXTD=YEAR: 1971
EXTT0=
EXTT1=
EXTT2=
EXTT3=
EXTT4=
EXTT5=
EXTT6=
EXTT7=
EXTT8=
EXTT9=
PLAYORDER=
